<svg xmlns="http://www.w3.org/2000/svg" class="icon icon-tabler icon-tabler-bookmarks-off" width="250px" height="250px" viewBox="0 0 24 24" stroke-width="1.00" stroke="rgba(1, 1, 1, 1)" fill="none" stroke-linecap="round" stroke-linejoin="round"><circle cx="50%" cy="50%" r="50%" stroke="none" stroke-width="0" fill="rgba(255, 0, 119, 1)"/><g transform="translate(2.40, 2.40) scale(0.8)"><path stroke="none" d="M0 0h24v24H0z" fill="none"/><path d="M11 7h2a2 2 0 0 1 2 2v2m0 4v6l-5 -3l-5 3v-12a2 2 0 0 1 2 -2"/><path d="M9.265 4a2 2 0 0 1 1.735 -1h6a2 2 0 0 1 2 2v10"/><path d="M3 3l18 18"/></g>
  
  
  
  
</svg>